# xmcd
# Track frame offsets:
# 182
# 12615
# 26387
# 40085
# 49200
# 58280
# 68022
# 79590
# 90592
# 102420
# 112805
# 125620
# 138450
# 151222
# 166727
# 178032
# 189067
# 200242
# 211030
# 220557
#
# Disc length: 3124 seconds
# Revision: 0
# Processed by: cddbd v1.4PL0 Copyright (c) Steve Scherf et al.
# Submitted via: VisiTrax 2.9.5.180 - For more info visit www.synapsa.com
#
DISCID=0a0c3214
DTITLE=Frankie Laine - The Best Of Frankie Laine
DYEAR=1995
DGENRE=
TTITLE0=High Noon
TTITLE1=Riders In The Sky
TTITLE2=Cool Water
TTITLE3=Rawhide
TTITLE4=Your Cheatin' Heart
TTITLE5=Gunfight At The OK Coral
TTITLE6=Mule Train
TTITLE7=The 3.10 To Yuma
TTITLE8=Wanted Man
TTITLE9=The Hanging Tree
TTITLE10=Moonlight Gambler
TTITLE11=Cry Of The Wild
TTITLE12=That Lucky Old Sun
TTITLE13=Tumbling Tumbleweed
TTITLE14=Along The Navajo Trail
TTITLE15=Call Of The Wild
TTITLE16=North To Alaska
TTITLE17=Humming Bird
TTITLE18=Blazing Saddles
TTITLE19=Don't Fence Me In
EXTD=
EXTT0=
EXTT1=
EXTT2=
EXTT3=
EXTT4=
EXTT5=
EXTT6=
EXTT7=
EXTT8=
EXTT9=
EXTT10=
EXTT11=
EXTT12=
EXTT13=
EXTT14=
EXTT15=
EXTT16=
EXTT17=
EXTT18=
EXTT19=
PLAYORDER=
